<svg width="18" height="18" viewBox="0 0 18 18" fill="none" xmlns="http://www.w3.org/2000/svg">
<path fill-rule="evenodd" clip-rule="evenodd" d="M9 1.5C4.86 1.5 1.5 4.86 1.5 9C1.5 13.14 4.86 16.5 9 16.5C13.14 16.5 16.5 13.14 16.5 9C16.5 4.86 13.14 1.5 9 1.5ZM9 15C5.6925 15 3 12.3075 3 9C3 5.6925 5.6925 3 9 3C12.3075 3 15 5.6925 15 9C15 12.3075 12.3075 15 9 15ZM7.5 10.6275L11.91 6.2175C12.2025 5.925 12.6825 5.925 12.975 6.2175C13.2675 6.51 13.2675 6.9825 12.975 7.275L8.0325 12.2175C7.74 12.51 7.2675 12.51 6.975 12.2175L5.0325 10.275C4.74 9.9825 4.74 9.51 5.0325 9.2175C5.17262 9.07706 5.36286 8.99814 5.56125 8.99814C5.75964 8.99814 5.94988 9.07706 6.09 9.2175L7.5 10.6275Z" fill="#1C1D1E"/>
</svg>
