<svg width="18" height="18" viewBox="0 0 18 18" fill="none" xmlns="http://www.w3.org/2000/svg">
<path fill-rule="evenodd" clip-rule="evenodd" d="M3.35259 15.3778C2.19759 15.3778 1.47759 14.1253 2.05509 13.1278L7.70259 3.37032C8.28009 2.37282 9.72009 2.37282 10.2976 3.37032L15.9451 13.1278C16.5226 14.1253 15.8026 15.3778 14.6476 15.3778H3.35259ZM14.6476 13.8778L9.00009 4.12032L3.35259 13.8778H14.6476ZM8.25009 7.87782V9.37782C8.25009 9.79032 8.58759 10.1278 9.00009 10.1278C9.41259 10.1278 9.75009 9.79032 9.75009 9.37782V7.87782C9.75009 7.46532 9.41259 7.12782 9.00009 7.12782C8.58759 7.12782 8.25009 7.46532 8.25009 7.87782ZM9.75009 13.1278V11.6278H8.25009V13.1278H9.75009Z" fill="white"/>
</svg>
