<svg width="18" height="18" viewBox="0 0 18 18" fill="none" xmlns="http://www.w3.org/2000/svg">
<path fill-rule="evenodd" clip-rule="evenodd" d="M9 1.5C4.86 1.5 1.5 4.86 1.5 9C1.5 13.14 4.86 16.5 9 16.5C13.14 16.5 16.5 13.14 16.5 9C16.5 4.86 13.14 1.5 9 1.5ZM8.25 5.25V6.75H9.75V5.25H8.25ZM9.75 12C9.75 12.4125 9.4125 12.75 9 12.75C8.5875 12.75 8.25 12.4125 8.25 12V9C8.25 8.5875 8.5875 8.25 9 8.25C9.4125 8.25 9.75 8.5875 9.75 9V12ZM3 9C3 12.3075 5.6925 15 9 15C12.3075 15 15 12.3075 15 9C15 5.6925 12.3075 3 9 3C5.6925 3 3 5.6925 3 9Z" fill="white"/>
</svg>
