<svg width="20" height="20" viewBox="0 0 20 20" fill="none" xmlns="http://www.w3.org/2000/svg">
<path d="M10 8.46715L13.1406 5.31971C13.5629 4.89644 14.2512 4.89301 14.6778 5.31204C15.1044 5.73108 15.1078 6.41389 14.6855 6.83716L11.5295 10L14.6855 13.1628C15.1078 13.5861 15.1044 14.2689 14.6778 14.688C14.2512 15.107 13.5629 15.1036 13.1406 14.6803L10 11.5329L6.8594 14.6803C6.43706 15.1036 5.74884 15.107 5.32223 14.688C4.89562 14.2689 4.89217 13.5861 5.31451 13.1628L8.47048 10L5.31451 6.83716C4.89217 6.41389 4.89562 5.73108 5.32223 5.31204C5.74884 4.89301 6.43706 4.89644 6.8594 5.31971L10 8.46715Z" fill="#8992A2"/>
</svg>
